<?xml version="1.0" encoding="UTF-8"?>
<svg id="_レイヤー_1" data-name="レイヤー_1" xmlns="http://www.w3.org/2000/svg" version="1.1" viewBox="0 0 300 300">
  <!-- Generator: Adobe Illustrator 29.0.1, SVG Export Plug-In . SVG Version: 2.1.0 Build 192)  -->
  <defs>
    <style>
      .st0 {
        fill: #7b4efa;
      }
    </style>
  </defs>
  <path class="st0" d="M150.26,22c-39.38,0-71.3,31.93-71.31,71.31,0,39.39,73.4,135.86,73.4,135.86,0,0,69.23-96.48,69.23-135.86s-31.93-71.31-71.31-71.31h-.01ZM150.26,51.15c21.27,0,38.52,17.25,38.52,38.52s-17.25,38.52-38.52,38.52-38.52-17.25-38.52-38.52c0-21.27,17.24-38.52,38.52-38.52h0ZM58.34,155.83c-3.66.23-7.09,1.87-9.58,4.57-.95,1.1-1.69,2.35-2.2,3.71L2.98,261.84c-1.14,2.74-1.28,5.79-.4,8.62.67,2.01,1.87,3.81,3.47,5.21,2.32,2.26,5.47,3.46,8.7,3.33h271.02c5.46.03,10.34-3.39,12.17-8.54.88-2.83.74-5.88-.4-8.62l-43.59-97.73c-.51-1.36-1.26-2.61-2.2-3.71-2.48-2.7-5.91-4.34-9.58-4.57h-25.5c-3.81,7.36-7.88,14.69-12.01,21.8h31.45l35.49,79.55H28.91l35.5-79.56h33.3c-4.37-7.12-8.69-14.44-12.72-21.8h-26.64Z"/>
</svg>